<svg id="Layer_1" enable-background="new 0 0 511.56 511.56" height="512" viewBox="0 0 511.56 511.56" width="512" xmlns="http://www.w3.org/2000/svg"><path d="m255.56 119.56c-74.99 0-136 61.01-136 136s61.01 136 136 136 136-61.01 136-136-61.01-136-136-136zm15 208.8v32.2h-30v-32.26c-17.46-6.25-30-23.05-30-42.74h30c0 8.32 6.9 15.35 15.06 15.35 8.27 0 15-6.73 15-15s-6.73-15-15-15c-24.81 0-45-20.18-45-45 0-19.53 12.51-36.2 29.94-42.4v-32.95h30v32.89c17.46 6.13 30 22.69 30 42.11h-30c0-8.21-6.56-14.65-14.94-14.65-8.27 0-15 6.73-15 15s6.73 15 15 15c24.82 0 45 20.19 45 45 0 19.58-12.56 36.28-30.06 42.45zm0-328.36v90.23c84.53 7.61 151 78.86 151 165.33 0 40.37-14.49 77.43-38.55 106.24l63.91 63.9c40.23-45.22 64.64-104.81 64.64-170.14 0-136.57-106.43-247.83-241-255.56zm91.24 383.01c-28.81 24.06-65.87 38.55-106.24 38.55s-77.43-14.49-106.24-38.55l-63.9 63.91c45.22 40.23 104.81 64.64 170.14 64.64 65.34 0 124.93-24.42 170.14-64.64zm-271.57-112.45h-90.23c3.42 59.45 27.08 113.41 64.21 155.14l63.9-63.9c-21.04-25.2-34.77-56.72-37.88-91.24zm-90.23-30h90.23c7.17-79.59 70.74-143.16 150.33-150.33v-90.23c-129.64 7.45-233.11 110.96-240.56 240.56z"/></svg>