<svg id="bold" enable-background="new 0 0 24 24" height="512" viewBox="0 0 24 24" width="512" xmlns="http://www.w3.org/2000/svg"><path d="m18 15c0 4.96-4.04 9-9 9-2.21 0-4.22-.8-5.79-2.13l6.32-6.34c.14-.14.22-.33.22-.53v-8.97c.25.02.5.05.75.09v.13c0 1.71 1.32 3.11 3 3.24v.76c0 .94.56 1.76 1.43 2.1.27.1.54.15.82.15.63 0 1.23-.27 1.65-.72.39 1 .6 2.09.6 3.22z"/><path d="m8.25 6.04v8.65l-6.1 6.12c-1.35-1.57-2.15-3.6-2.15-5.81 0-4.71 3.64-8.59 8.25-8.96z"/><path d="m22.25 0h-8.5c-.965 0-1.75.785-1.75 1.75v4.5c0 .965.785 1.75 1.75 1.75h1.25v2.25c0 .309.19.587.478.699.088.034.181.051.272.051.206 0 .408-.085.553-.243l2.527-2.757h3.42c.965 0 1.75-.785 1.75-1.75v-4.5c0-.965-.785-1.75-1.75-1.75zm-6.75 4.75c-.414 0-.75-.336-.75-.75s.336-.75.75-.75.75.336.75.75-.336.75-.75.75zm2.5 0c-.414 0-.75-.336-.75-.75s.336-.75.75-.75.75.336.75.75-.336.75-.75.75zm2.5 0c-.414 0-.75-.336-.75-.75s.336-.75.75-.75.75.336.75.75-.336.75-.75.75z"/></svg>