<svg height="404pt" viewBox="-92 0 404 404.167" width="404pt" xmlns="http://www.w3.org/2000/svg"><path d="m94.339844 124h30.5625l5.65625-24.09375-20.9375-17.847656-20.953125 17.796875zm0 0"/><path d="m.0820312 27.808594 44.2460938 90.8125 52.511719-44.242188zm0 0"/><path d="m94.84375 138-32.007812 215.246094 46.785156 50.921875 46.785156-50.921875-32.007812-215.246094zm0 0"/><path d="m174.917969 118.621094 44.242187-90.8125-96.753906 46.570312zm0 0"/><path d="m214.738281 14.265625c-34.25-9.417969-69.605469-14.2148438-105.128906-14.265625h-.191406c-35.496094.03125-70.828125 4.792969-105.0625 14.160156l105.265625 50.769532zm0 0"/></svg>