<?xml version="1.0" encoding="iso-8859-1"?>
<!-- Generator: Adobe Illustrator 19.0.0, SVG Export Plug-In . SVG Version: 6.00 Build 0)  -->
<svg version="1.1" id="Layer_1" xmlns="http://www.w3.org/2000/svg" xmlns:xlink="http://www.w3.org/1999/xlink" x="0px" y="0px"
	 viewBox="0 0 490.667 490.667" style="enable-background:new 0 0 490.667 490.667;" xml:space="preserve">
<g>
	<g>
		<path d="M184.576,286.983l12.715,8.469c29.184,19.456,66.901,19.456,96.085,0l12.715-8.469H184.576z"/>
	</g>
</g>
<g>
	<g>
		<path d="M468.779,148.295l-20.757-15.104v79.125c0,0.341-0.171,0.64-0.192,0.981c-0.064,0.747-0.213,1.429-0.427,2.155
			c-0.192,0.64-0.427,1.237-0.747,1.835s-0.683,1.109-1.109,1.643c-0.469,0.576-0.96,1.088-1.536,1.557
			c-0.256,0.213-0.427,0.512-0.704,0.704l-138.048,92.011c-18.197,12.117-39.04,18.197-59.883,18.197
			c-20.843,0-41.685-6.059-59.883-18.197L47.445,221.191c-0.299-0.192-0.448-0.491-0.704-0.704c-0.576-0.469-1.067-0.96-1.536-1.557
			c-0.427-0.533-0.789-1.067-1.109-1.643c-0.32-0.597-0.555-1.195-0.747-1.835c-0.213-0.704-0.363-1.408-0.427-2.155
			c-0.043-0.341-0.192-0.64-0.192-0.981v-79.125l-20.821,15.104C8.192,158.257,0,174.577,0,191.943v233.707
			c0,29.397,23.104,53.333,51.477,53.333h387.712c28.395,0,51.477-23.936,51.477-53.333V191.943
			C490.667,174.577,482.496,158.257,468.779,148.295z"/>
	</g>
</g>
<g>
	<g>
		<path d="M309.867,32.732c-38.613-28.075-90.475-28.053-129.067,0l-26.923,19.584h178.091L309.867,32.732z"/>
	</g>
</g>
<g>
	<g>
		<path d="M256,181.98v18.624c14.165-2.176,21.333-7.915,21.333-9.621C277.333,190.94,277.013,185.799,256,181.98z"/>
	</g>
</g>
<g>
	<g>
		<path d="M213.333,148.316c0,0.064,0.32,5.184,21.333,9.003v-18.667C221.013,140.764,213.333,146.183,213.333,148.316z"/>
	</g>
</g>
<g>
	<g>
		<path d="M416,73.649H74.667C68.779,73.649,64,78.428,64,84.316v122.283c0,0,101.888,59.051,96,59.051h170.667
			c1.92,0,96-59.051,96-59.051V84.316C426.667,78.428,421.909,73.649,416,73.649z M298.667,190.983
			c0,16.043-17.707,28.587-42.667,31.403v11.285c0,5.888-4.779,10.667-10.667,10.667s-10.667-4.779-10.667-10.667v-11.264
			c-23.424-2.624-40.704-13.888-42.581-28.715c-0.747-5.845,3.413-11.179,9.259-11.925c5.824-0.64,11.179,3.413,11.925,9.259
			c0.299,2.475,8.149,7.637,21.419,9.664v-21.76c-17.429-2.709-42.667-9.259-42.667-30.613c0-16.021,17.728-28.587,42.667-31.381
			v-11.285c0-5.888,4.779-10.667,10.667-10.667s10.667,4.779,10.667,10.667v11.264c23.424,2.624,40.704,13.888,42.581,28.715
			c0.747,5.845-3.413,11.179-9.259,11.925c-5.909,0.619-11.179-3.413-11.925-9.259c-0.299-2.475-8.149-7.637-21.419-9.664v21.739
			C273.429,163.1,298.667,169.649,298.667,190.983z M373.333,137.649h-42.667c-5.888,0-10.667-4.779-10.667-10.667
			s4.779-10.667,10.667-10.667h42.667c5.888,0,10.667,4.779,10.667,10.667S379.243,137.649,373.333,137.649z"/>
	</g>
</g>
<g>
</g>
<g>
</g>
<g>
</g>
<g>
</g>
<g>
</g>
<g>
</g>
<g>
</g>
<g>
</g>
<g>
</g>
<g>
</g>
<g>
</g>
<g>
</g>
<g>
</g>
<g>
</g>
<g>
</g>
</svg>
