<svg id="Layer_5" enable-background="new 0 0 64 64" height="512" viewBox="0 0 64 64" width="512" xmlns="http://www.w3.org/2000/svg"><g><path d="m21 52c0-4.963-4.037-9-9-9s-9 4.037-9 9 4.037 9 9 9 9-4.037 9-9zm-10-1h2c1.654 0 3 1.346 3 3v3h-3v2h-2v-2c-1.654 0-3-1.346-3-3h2c0 .552.448 1 1 1h3v-1c0-.552-.448-1-1-1h-2c-1.654 0-3-1.346-3-3v-3h3v-2h2v2c1.654 0 3 1.346 3 3h-2c0-.552-.448-1-1-1h-3v1c0 .552.448 1 1 1z"/><path d="m40.623 19h-22.623c-.552 0-1-.448-1-1v-10c0-.552.448-1 1-1h22.623c.931-1.604 2.216-2.977 3.757-4h-28.38c-1.654 0-3 1.346-3 3v35.051c1.05.095 2.055.343 3 .713v-1.764c0-1.105.895-2 2-2h4c1.105 0 2 .895 2 2v4c0 1.105-.895 2-2 2h-.792c1.129 1.727 1.792 3.786 1.792 6 0 3.72-1.861 7.008-4.695 9h29.695c1.654 0 3-1.346 3-3v-33c-4.43 0-8.298-2.419-10.377-6zm-16.623 13c0 1.105-.895 2-2 2h-4c-1.105 0-2-.895-2-2v-4c0-1.105.895-2 2-2h4c1.105 0 2 .895 2 2zm12 24c0 1.105-.895 2-2 2h-4c-1.105 0-2-.895-2-2v-4c0-1.105.895-2 2-2h4c1.105 0 2 .895 2 2zm0-12c0 1.105-.895 2-2 2h-4c-1.105 0-2-.895-2-2v-4c0-1.105.895-2 2-2h4c1.105 0 2 .895 2 2zm0-12c0 1.105-.895 2-2 2h-4c-1.105 0-2-.895-2-2v-4c0-1.105.895-2 2-2h4c1.105 0 2 .895 2 2zm12 24c0 1.105-.895 2-2 2h-4c-1.105 0-2-.895-2-2v-16c0-1.105.895-2 2-2h4c1.105 0 2 .895 2 2zm0-28v4c0 1.105-.895 2-2 2h-4c-1.105 0-2-.895-2-2v-4c0-1.105.895-2 2-2h4c1.105 0 2 .895 2 2z"/><path d="m51 3c-5.514 0-10 4.486-10 10s4.486 10 10 10 10-4.486 10-10-4.486-10-10-10zm-6 7c0-1.105.895-2 2-2s2 .895 2 2-.895 2-2 2-2-.895-2-2zm2.832 9.555-1.664-1.109 8-12 1.664 1.109zm7.168-1.555c-1.105 0-2-.895-2-2s.895-2 2-2 2 .895 2 2-.895 2-2 2z"/></g></svg>